<?xml version="1.0" encoding="utf-8"?>
<!-- Generator: Adobe Illustrator 20.1.0, SVG Export Plug-In . SVG Version: 6.00 Build 0)  -->
<svg version="1.1" id="Layer_1" xmlns="http://www.w3.org/2000/svg" xmlns:xlink="http://www.w3.org/1999/xlink" x="0px" y="0px"
	 viewBox="0 0 400 250" style="enable-background:new 0 0 400 250;" xml:space="preserve">
<style type="text/css">
	.st0{opacity:0.2;fill:#FFFFFF;}
	.st1{fill:none;stroke:url(#XMLID_2_);stroke-width:4.3541;stroke-miterlimit:10;}
	.st2{fill:none;stroke:url(#XMLID_3_);stroke-width:4.3541;stroke-miterlimit:10;}
	.st3{fill:none;stroke:url(#XMLID_4_);stroke-width:4.3541;stroke-miterlimit:10;}
	.st4{fill:none;stroke:url(#XMLID_5_);stroke-width:4.3541;stroke-miterlimit:10;}
	.st5{fill:none;stroke:url(#XMLID_6_);stroke-width:4.3541;stroke-miterlimit:10;}
	.st6{fill:none;stroke:url(#XMLID_7_);stroke-width:4.3541;stroke-miterlimit:10;}
	.st7{fill:none;stroke:url(#XMLID_8_);stroke-width:4.3541;stroke-miterlimit:10;}
	.st8{fill:none;stroke:url(#XMLID_9_);stroke-width:4.3541;stroke-miterlimit:10;}
	.st9{fill:none;stroke:url(#XMLID_11_);stroke-width:4.3541;stroke-miterlimit:10;}
	.st10{fill:none;stroke:url(#XMLID_12_);stroke-width:4.3541;stroke-miterlimit:10;}
	.st11{fill:none;stroke:url(#XMLID_13_);stroke-width:4.3541;stroke-miterlimit:10;}
	.st12{fill:url(#SVGID_1_);}
	.st13{fill:url(#SVGID_2_);}
	.st14{fill:url(#SVGID_3_);}
	.st15{fill:url(#SVGID_4_);}
	.st16{fill:url(#SVGID_5_);}
	.st17{fill:url(#SVGID_6_);}
	.st18{fill:url(#SVGID_7_);}
	.st19{fill:url(#SVGID_8_);}
	.st20{fill:url(#XMLID_14_);}
	.st21{fill:url(#XMLID_15_);}
	.st22{fill:url(#XMLID_16_);}
</style>
<path id="XMLID_291_" class="st0" d="M391.4,163.2c-0.1-4.1-3-7.4-6.9-8.2c0,0,0-0.1,0-0.1c0.4-1.4,0.7-2.8,0.8-4.2
	c0.1-1.4,0.1-2.8-0.1-4c-0.3-2.2-1.2-4-2.4-5.5c-0.1-0.1-0.2-0.2-0.3-0.3c-1.2-1.3-2.7-2.4-4.5-3.4c-1.6-0.9-3.3-1.6-5.3-2.2
	c-1.8-0.5-3.7-0.8-5.7-1c-2.1-0.2-4.4-0.1-6.6,0.2c-3.9,0.5-7.4,2-10.4,4.3c-2.7,2-4.9,4.6-6.6,7.6c-0.8,1.3-1.4,2.6-2,4l0.1-6.5
	c0-2.4-1-4.7-2.8-6.4c-1.6-1.5-3.7-2.5-6.6-3.1c-1.8-0.4-3.7-0.6-5.7-0.7c-2.1-0.1-4.1,0-6.1,0.3c-2.7,0.4-4.9,1.2-6.8,2.5
	c-0.1-0.1-0.2-0.1-0.4-0.2c-1.8-1-4-1.6-6.3-1.8c0,0-0.1,0-0.1,0c3.2-1.7,5.8-4.3,7.9-7.9c0.8-1.4,1.2-3.1,1.1-4.7l-3.6-63.3
	c0-0.3-0.1-0.6-0.1-0.9c-0.4-2.3-1.7-5.4-6.1-7.4c-1.4-0.7-3.1-1.2-4.9-1.5c-1.6-0.3-3.3-0.5-5.1-0.6c-1.9-0.1-3.8-0.1-5.6,0.1
	c-2.1,0.2-4.1,0.7-5.9,1.4c-2.7,1.1-5,2.9-6.5,5.2c-0.4,0.6-0.7,1.3-0.9,1.9l-2.3,6.9l-3.6-8.5c-0.7-1.7-2-3.2-3.7-4.1
	c-1.6-0.9-3.5-1.6-5.8-2.2c-2.1-0.5-4.2-0.8-6.5-0.8c-0.3,0-0.6,0-0.9,0c-2.7,0.1-5.3,0.6-7.8,1.5c-3.2,1.1-5.9,3.1-8.2,5.8
	c-1.2,1.5-1.9,3.5-1.9,5.5l0.7,64.2c0,1.8,0.6,3.5,1.6,4.9c1.8,2.5,4,4.5,6.4,6c-1.2-0.6-2.6-1.1-4.3-1.5c-1.8-0.4-3.7-0.6-5.7-0.7
	c-2.1-0.1-4.1,0-6.1,0.3c-2.7,0.4-4.9,1.2-6.8,2.5c-0.1-0.1-0.2-0.1-0.4-0.2c-0.2-0.1-0.4-0.2-0.6-0.3c2.4-0.7,4.8-1.8,7.3-3.3
	c3.3-2,4.8-6,3.7-9.7l-18.7-63.7c-0.1-0.4-0.3-0.8-0.5-1.2c-1.2-2.6-3.4-4.8-6.5-6.3c-2-1-4.3-1.8-6.9-2.3c-2.3-0.4-4.8-0.7-7.4-0.7
	c-2.7,0-5.3,0.3-7.8,0.9c-2.8,0.6-5.3,1.7-7.6,3.1c-2.9,1.8-5.2,4.4-6.5,7.5c-0.2,0.4-0.3,0.8-0.4,1.3l-15.2,60.8
	c-0.1,0.3-0.1,0.6-0.2,0.8c-0.2,1.5-0.5,6.7,5.6,10c1,0.6,2.1,1,3.4,1.5c-0.1,0-0.2,0.1-0.2,0.1c-3.7,1.6-6.3,4.5-7.4,8.1
	c-0.7,2.5-0.9,5-0.5,7.5c0.4,2.1,1,4.1,2,5.9c0.9,1.7,2.5,4.1,5.3,5.4c0.3,0.1,0.6,0.2,0.9,0.3l0,5.8c-1.4,0.4-2.7,1.1-3.8,2.2
	c-1.1,1.1-1.7,2.2-2.2,3.3c-0.4,0.9-0.8,1.8-1.1,3c-0.1,0.3-0.2,0.6-0.2,0.9l-10-34.1c-0.1-0.4-0.3-0.8-0.5-1.2
	c-1.1-2.3-3-4.2-5.6-5.5c-1.6-0.8-3.3-1.4-5.2-1.7c-1.2-0.2-2.4-0.4-3.7-0.4c0.3-0.1,0.5-0.2,0.8-0.4c4.4-2.2,8.5-5.5,12.3-9.9
	c3.7-4.2,6.9-9.7,9.5-16.3c0.5-1.1,0.7-2.4,0.6-3.6c-0.1-3-1.2-5.9-3-8.2c-1.5-1.9-3.4-3.4-5.6-4.6c-1.3-0.7-2.8-1.3-4.3-1.7
	c0.8-0.3,1.6-0.7,2.4-1.1c2.5-1.4,4.7-3.3,6.4-5.7c2.2-3.1,3.1-6.6,2.7-10.2c-0.1-0.5-0.2-1-0.3-1.4c-1.8-6.2-4.8-11.2-8.7-14.9
	c-3.9-3.6-8.5-6-13.5-7.1c-4.7-1-9.7-1-14.7,0c-4.8,1-9.3,2.8-13.5,5.4c-4.2,2.6-7.9,5.8-11.1,9.7c-3.4,4.1-5.8,8.7-7,13.7
	c-1.7,6.4-2.3,12.5-2,18.2c0.3,5.8,1.4,11.1,3.2,15.9c1.9,4.9,4.5,9.3,7.7,12.9c3.3,3.7,7,6.6,11.1,8.7c4.3,2.2,8.8,3.3,13.6,3.4
	c0.1,0,0.3,0,0.4,0c-0.1,0-0.1,0.1-0.2,0.1c-2.4,1.5-4.3,3.7-5.4,6.3c-0.2,0.4-0.3,0.8-0.4,1.3l-8.1,32.4l-5.9-8.7
	c0.6-0.7,1.1-1.5,1.6-2.3c1.1-1.6,1.9-3.3,2.6-5c0.9-2.2,1.3-4.5,1.3-6.9c0-0.5,0-0.9-0.1-1.3c-0.7-4.1-2.1-7.6-4.4-10.4
	c-2.2-2.7-4.9-4.7-8-6.1c-2.8-1.2-5.9-2-9.2-2.2c-3-0.2-6-0.1-9,0.4c-2.9,0.5-5.7,1.2-8.4,2.3c-2.7,1-5.2,2.3-7.4,3.7
	c-0.5,0.3-1,0.8-1.5,1.2c-0.2-0.4-0.3-0.9-0.5-1.3c-1.6-3.1-3.8-4.7-5.3-5.4c-1.2-0.5-2.5-0.8-3.8-0.8L16,134.8
	c-2.8,0.1-5.4,1.5-6.9,3.8c-1,1.5-1.8,3.3-2.2,5.3c-0.4,1.6-0.6,3.3-0.6,5c0,1.5,0.1,3.1,0.4,4.5c0.3,1.6,0.6,3.1,1.2,4.4
	c1.3,3.4,4.6,5.6,8.3,5.5l0.7,0L16,186c0,0.9,0.1,1.8,0.4,2.7c0.5,1.8,1.9,4.4,5.3,6.2c1.2,0.7,2.7,1.2,4.2,1.6
	c1.3,0.3,2.8,0.6,4.2,0.7c0.7,0.1,1.3,0.1,1.9,0.1c1.1,0,2.1-0.1,3.1-0.2c2-0.3,3.8-1,5.5-1.9c2.8-1.6,4.6-4.3,5.3-7.4
	c0.1-0.6,0.2-1.1,0.2-1.7c0-1.2,0-2.7-0.1-4.5c0-1.7-0.1-3.5-0.1-5.4c0-2-0.1-4-0.1-6.1c-0.1-2-0.1-4.1-0.1-6c0-0.4,0-1.1,0-1.1h0.4
	c2.6,0,5.1-1.1,6.7-3.2c0.3-0.4,0.5-0.8,0.8-1.2l-0.5,28c0,0,0,0.1,0,0.1c0,2,0.8,6.8,6.5,9.8c2.1,1.1,4.6,1.8,7.2,2
	c0.7,0.1,1.4,0.1,2.1,0.1c1.9,0,3.8-0.3,5.6-0.8c1.5-0.4,2.8-1.1,4-1.9c1.4,0.9,3,1.3,4.7,1.3c1.4,0,3-0.1,4.7-0.3
	c2.1-0.2,4.2-0.5,6.2-1.1c2.4-0.7,4.6-1.7,6.5-3.1c1.1-0.8,2-1.6,2.8-2.6c0.8,1.7,2.2,3.4,4.4,4.6c1.2,0.7,2.6,1.2,4.2,1.6
	c1.3,0.3,2.8,0.6,4.3,0.8c1.7,0.2,3.3,0.2,4.9,0.1c1.9-0.1,3.8-0.5,5.5-1.2c1.6-0.6,3-1.4,4.2-2.5c0.9,0.9,2.1,1.6,3.4,2.1
	c1.2,0.4,2.3,0.7,3.5,1c1.7,0.5,3.5,0.8,5.3,0.8c0.2,0,0.4,0,0.6,0c1.7,0,3.4-0.2,5.2-0.7c2-0.5,4.1-1.4,6.2-2.7
	c1.3-0.8,2.3-1.8,3-3.1c1.2,1.9,2.8,3.2,4.8,4.3c1.3,0.7,2.7,0.7,4.1,0.7c0,0,0,0,0,0l23.3,0.3c2.1,0,4.2-0.7,5.8-2.1
	c0.8-0.7,1.5-1.5,2.1-2.3c0.4,0.8,0.9,1.5,1.5,2.1c2.2,2.2,5,3,6.9,3.3c1.7,0.3,3.5,0.5,5.3,0.6c0.5,0,1.1,0,1.6,0
	c1.3,0,2.5-0.1,3.7-0.2c2.5-0.2,4.4-0.7,6.1-1.6c0.4-0.2,0.9-0.5,1.3-0.8c0.9,0.5,1.8,0.8,2.6,1.1c1.9,0.6,4,1,6.2,1.1
	c2.2,0.1,4.5-0.1,6.7-0.7c3.3-0.8,6.1-2.7,8.1-5.4c0.3-0.4,0.5-0.8,0.7-1.2c1.2,2.2,3,3.8,5.3,5c1.3,0.7,2.7,0.7,4.1,0.7h0l23.3,0.3
	c2.1,0,4.2-0.7,5.8-2.1c0.8-0.7,1.5-1.5,2.1-2.3c0.4,0.8,0.9,1.5,1.5,2.1c2.2,2.2,5,3,6.9,3.3c1.7,0.3,3.5,0.5,5.3,0.6
	c0.5,0,1.1,0,1.6,0c1.3,0,2.5-0.1,3.7-0.2c2.5-0.2,4.4-0.7,6.1-1.6c0.4-0.2,0.9-0.5,1.3-0.8c0.9,0.5,1.8,0.8,2.6,1.1
	c1.9,0.6,4,1,6.2,1.1c2.2,0.1,4.5-0.1,6.7-0.7c3.3-0.8,6.1-2.7,8.1-5.4c1.1-1.4,1.6-3.2,1.7-5l0.1-5.5c0.3,0.9,0.7,1.8,1.1,2.6
	c1.4,3.1,3.3,5.7,5.6,7.9c2.6,2.5,5.7,4.2,9.2,5.1c3.4,0.8,7.1,0.6,11-0.5c0.7-0.2,1.5-0.5,2.2-0.8c1.3,0.7,2.7,1.2,4.2,1.5
	c1.2,0.2,2.5,0.3,3.7,0.3c0.5,0,1,0,1.5-0.1c1.9-0.1,3.6-0.5,5.2-1.2c3.7-1.5,5.5-4,6.3-5.8c0.5-1.1,0.7-2.3,0.7-3.5L391.4,163.2z
	 M75.2,154.6l0.2,0.6l-0.1,0.4C75.2,155.3,75.2,155,75.2,154.6z M76.3,151.6l-0.2,0.6l-0.6,0c0.1-0.2,0.2-0.4,0.3-0.6
	C76,151.6,76.2,151.6,76.3,151.6z M121.9,83.2c0.3,0.2,1.3,0.9,3,3.1c0.4,0.6,1,1.1,1.5,1.6c1.1,0.8,2.2,1.5,3.5,2
	c-1,0.4-2,0.9-2.8,1.5c-2.2,1.4-3.8,3.4-4.8,5.8c-1.6,2.2-2.5,2.8-2.6,2.9c-0.1,0.1-0.2,0.1-0.3,0.2c0,0-0.1-0.1-0.1-0.1
	c-0.7-0.7-1.2-1.5-1.7-2.5c-0.5-1.2-0.9-2.6-1.1-4c-0.2-1.2-0.1-2.4,0.2-3.4c0-0.1,0-0.2,0.1-0.2c0.2-0.8,0.6-1.8,1.1-2.8
	c0.5-1,1-1.8,1.7-2.6c0.5-0.6,1.1-1.2,1.8-1.6C121.3,82.9,121.6,83,121.9,83.2z M291.1,138.5c-0.6,0.5-1.1,1.1-1.5,1.7
	c-0.6-1.2-1.4-2.2-2.2-3.2c-1.2-1.3-2.8-2.3-4.5-2.7c0.6-0.3,1.3-0.7,1.9-1.1c1.1,0.8,2.3,1.4,3.3,1.8c1.8,0.8,3.7,1.3,5.7,1.6
	C292.8,137.2,291.9,137.8,291.1,138.5z M270.9,134.1l-0.5,0c0.1-0.1,0.1-0.1,0.2-0.2C270.7,134,270.8,134,270.9,134.1z M199.8,138.5
	c-0.6,0.5-1.1,1.1-1.5,1.7c-0.6-1.2-1.4-2.2-2.2-3.2c-1.6-1.8-3.9-2.9-6.4-2.9l-1.8,0c2.2-1.2,4-2.7,5.4-4.7c0.6-0.9,1-1.9,1.3-2.9
	l0.1,1c0.5,3.2,2.7,5.9,5.8,6.9c1.4,0.5,2.9,0.9,4.4,1.3C202.9,136.4,201.2,137.3,199.8,138.5z M191.8,167.2l-0.1-5.2
	c1.8-0.4,3.5-1.5,4.7-3c0.2-0.3,0.4-0.6,0.6-0.9l0.1,11.8c-0.1-0.1-0.2-0.2-0.3-0.3C195.5,168.3,193.7,167.4,191.8,167.2z
	 M245.8,136c0.7,0.4,1.4,0.7,2.1,1c0.8,0.3,1.7,0.6,2.5,0.9c-0.4,0.5-0.8,1-1.2,1.5c-0.4-0.8-1-1.5-1.7-2.1
	C247.1,136.9,246.5,136.4,245.8,136z M255.3,167.7c-1.4,0.4-2.7,1.1-3.8,2.2c-0.6,0.6-1.1,1.3-1.5,1.9l0.1-13.8
	c0.9,1.3,2.3,2.7,4.2,3.6c0.3,0.1,0.6,0.2,0.9,0.3L255.3,167.7z M283,167.2l-0.1-5.2c1.8-0.4,3.5-1.5,4.7-3c0.2-0.3,0.4-0.6,0.6-0.9
	l0.1,11.8c-0.1-0.1-0.2-0.2-0.3-0.3C286.8,168.3,285,167.4,283,167.2z"/>
<g id="XMLID_272_">
	<radialGradient id="XMLID_2_" cx="31.7831" cy="165.0905" r="22.3934" gradientUnits="userSpaceOnUse">
		<stop  offset="0" style="stop-color:#0E2447"/>
		<stop  offset="1" style="stop-color:#0F1F38"/>
	</radialGradient>
	<path id="XMLID_289_" class="st1" d="M15.8,154.2c-0.3-0.8-0.5-1.7-0.7-2.7c-0.2-1-0.3-2.1-0.3-3.2c0-1.1,0.1-2.1,0.3-3.1
		c0.2-1,0.6-1.8,1-2.5l30.7-0.7c0.5,0.2,0.9,0.7,1.3,1.5c0.4,0.8,0.6,1.7,0.6,2.8c0,1.1-0.1,2.3-0.5,3.6c-0.4,1.3-1.1,2.6-2.1,3.9
		H37c0,1.2,0,2.6,0.1,4.3c0,1.7,0.1,3.5,0.1,5.5c0,2,0.1,4,0.1,6c0.1,2.1,0.1,4.1,0.1,6c0,2,0.1,3.8,0.1,5.5c0,1.7,0.1,3.1,0.1,4.3
		c-0.2,0.8-0.6,1.3-1.3,1.7c-0.7,0.4-1.5,0.7-2.5,0.8c-0.9,0.1-1.9,0.2-3,0.1c-1.1-0.1-2-0.3-2.9-0.5c-0.9-0.2-1.7-0.5-2.3-0.8
		c-0.6-0.3-1-0.7-1.1-1.1l1-31.9L15.8,154.2z"/>
	<radialGradient id="XMLID_3_" cx="80.0474" cy="165.5963" r="23.3116" gradientUnits="userSpaceOnUse">
		<stop  offset="0" style="stop-color:#0E2447"/>
		<stop  offset="1" style="stop-color:#0F1F38"/>
	</radialGradient>
	<path id="XMLID_286_" class="st2" d="M62.4,147c1.7-1.1,3.6-2,5.8-2.9c2.2-0.8,4.4-1.4,6.8-1.8c2.3-0.4,4.7-0.5,7-0.3
		c2.3,0.2,4.4,0.7,6.3,1.5c1.9,0.8,3.5,2.1,4.8,3.7c1.3,1.6,2.2,3.7,2.6,6.3c0,1.3-0.2,2.6-0.7,3.7c-0.5,1.2-1.1,2.3-1.8,3.4
		c-0.7,1.1-1.6,2.2-2.5,3.2c-0.9,1-1.9,2-2.8,3L98,181.7c-0.4,1.4-1.2,2.4-2.3,3.2c-1.1,0.8-2.5,1.4-3.9,1.8c-1.5,0.4-3,0.7-4.6,0.8
		c-1.6,0.1-3,0.2-4.2,0.3l-8.3-16.4l0.1,15.1c-0.5,1.1-1.4,1.9-2.8,2.3c-1.4,0.4-2.8,0.5-4.4,0.4c-1.5-0.2-2.9-0.5-4-1.1
		c-1.2-0.6-1.7-1.3-1.7-2.2L62.4,147z M74.3,159.1c0.6,0.2,1.4,0.2,2.3,0.1c1-0.1,1.9-0.4,2.9-0.8c1-0.4,1.8-0.9,2.6-1.7
		c0.8-0.7,1.3-1.6,1.6-2.8c0.1-0.9-0.2-1.6-0.8-2.1c-0.6-0.5-1.3-0.9-2.3-1.1c-0.9-0.2-2-0.2-3.2-0.1c-1.2,0.1-2.3,0.4-3.3,0.9
		L74.3,159.1z"/>
	<radialGradient id="XMLID_4_" cx="131.1398" cy="165.1143" r="23.8207" gradientUnits="userSpaceOnUse">
		<stop  offset="0" style="stop-color:#0E2447"/>
		<stop  offset="1" style="stop-color:#0F1F38"/>
	</radialGradient>
	<path id="XMLID_283_" class="st3" d="M126,185.7c-0.5,0.7-1.2,1.2-2.2,1.6c-1,0.4-2,0.6-3.1,0.6c-1.1,0.1-2.2,0-3.4-0.1
		c-1.1-0.1-2.2-0.3-3.1-0.6c-0.9-0.2-1.7-0.5-2.3-0.8c-0.6-0.3-0.9-0.6-0.8-0.9l9.9-39.6c0.4-1,1.1-1.8,2.1-2.4c1-0.6,2-1,3.2-1.3
		c1.2-0.3,2.5-0.4,3.8-0.4c1.3,0,2.6,0.1,3.7,0.3c1.2,0.2,2.2,0.6,3,1c0.9,0.4,1.4,0.9,1.7,1.5l12.2,41.4c-1.4,0.8-2.6,1.4-3.8,1.7
		c-1.2,0.3-2.4,0.4-3.5,0.4c-1.1,0-2.2-0.2-3.3-0.5c-1.1-0.3-2.1-0.6-3.2-1l-2.4-17l-6.9-0.2L126,185.7z M134.1,160.4
		c-0.5-2.8-0.9-4.8-1.5-5.9c-0.5-1.1-1.1-1.6-1.6-1.4c-0.5,0.2-1.1,1-1.6,2.4c-0.5,1.4-1,3.1-1.4,5.1L134.1,160.4z"/>
	<radialGradient id="XMLID_5_" cx="178.3505" cy="164.7161" r="21.0873" gradientUnits="userSpaceOnUse">
		<stop  offset="0" style="stop-color:#0E2447"/>
		<stop  offset="1" style="stop-color:#0F1F38"/>
	</radialGradient>
	<path id="XMLID_281_" class="st4" d="M167.1,187.5c-0.8-0.5-1.4-1.1-1.8-1.8c-0.4-0.8-0.6-1.6-0.7-2.5c-0.1-0.9-0.1-1.8,0.1-2.7
		c0.1-0.9,0.3-1.7,0.5-2.5c0.2-0.8,0.5-1.4,0.7-1.9c0.2-0.5,0.4-0.8,0.5-0.8l6.3-0.3l0.1-21.9h-6c-0.3-0.1-0.8-0.7-1.3-1.6
		c-0.5-0.9-0.9-2-1.1-3.2c-0.2-1.2-0.1-2.4,0.2-3.6c0.4-1.2,1.2-2.1,2.7-2.7l22.5,0.1c0.6,0.6,1,1.4,1.4,2.2
		c0.4,0.8,0.6,1.7,0.7,2.7c0.1,1,0,2-0.4,3c-0.3,1.1-0.9,2.1-1.8,3.2l-6.6-0.1l0.2,22h7.5c0.2,0.2,0.5,0.8,0.8,1.7
		c0.4,1,0.6,2.1,0.8,3.4c0.1,1.3,0.1,2.6-0.1,3.9c-0.2,1.3-0.9,2.4-1.8,3.3L167.1,187.5z"/>
	<radialGradient id="XMLID_6_" cx="223.6368" cy="165.1435" r="23.2977" gradientUnits="userSpaceOnUse">
		<stop  offset="0" style="stop-color:#0E2447"/>
		<stop  offset="1" style="stop-color:#0F1F38"/>
	</radialGradient>
	<path id="XMLID_279_" class="st5" d="M205.4,144.3c0.6-0.5,1.4-0.9,2.5-1.3c1.1-0.4,2.2-0.6,3.5-0.7c1.2-0.1,2.4-0.1,3.7,0
		c1.2,0.1,2.3,0.4,3.1,0.8l8.1,17.2l0.8-17.4c0.8-0.6,1.9-1,3.4-1.2c1.5-0.2,3-0.3,4.5-0.3c1.5,0.1,2.9,0.2,4.2,0.5
		c1.3,0.3,2.2,0.6,2.6,1l-0.5,42.8c-0.8,1.1-1.9,1.9-3.4,2.2c-1.4,0.4-2.8,0.5-4.2,0.5c-1.4-0.1-2.7-0.3-3.8-0.6
		c-1.1-0.4-1.8-0.7-2-1.1l-7.9-16.9l-0.4,18.2c-0.7,0.3-1.7,0.6-3.1,0.7c-1.4,0.1-2.8,0.2-4.2,0.1c-1.4-0.1-2.8-0.2-4-0.5
		c-1.2-0.2-2.1-0.6-2.5-1L205.4,144.3z"/>
	<radialGradient id="XMLID_7_" cx="269.5995" cy="164.7161" r="21.0873" gradientUnits="userSpaceOnUse">
		<stop  offset="0" style="stop-color:#0E2447"/>
		<stop  offset="1" style="stop-color:#0F1F38"/>
	</radialGradient>
	<path id="XMLID_277_" class="st6" d="M258.4,187.5c-0.8-0.5-1.4-1.1-1.8-1.8c-0.4-0.8-0.6-1.6-0.7-2.5c-0.1-0.9-0.1-1.8,0.1-2.7
		c0.1-0.9,0.3-1.7,0.5-2.5c0.2-0.8,0.5-1.4,0.7-1.9c0.2-0.5,0.4-0.8,0.5-0.8l6.3-0.3l0.1-21.9h-6c-0.3-0.1-0.8-0.7-1.3-1.6
		c-0.5-0.9-0.9-2-1.1-3.2c-0.2-1.2-0.1-2.4,0.2-3.6c0.4-1.2,1.2-2.1,2.7-2.7l22.5,0.1c0.6,0.6,1,1.4,1.4,2.2
		c0.4,0.8,0.6,1.7,0.7,2.7c0.1,1,0,2-0.4,3c-0.3,1.1-0.9,2.1-1.8,3.2l-6.6-0.1l0.2,22h7.5c0.2,0.2,0.5,0.8,0.8,1.7
		c0.4,1,0.6,2.1,0.8,3.4c0.1,1.3,0.1,2.6-0.1,3.9c-0.2,1.3-0.9,2.4-1.8,3.3L258.4,187.5z"/>
	<radialGradient id="XMLID_8_" cx="314.8854" cy="165.1435" r="23.2977" gradientUnits="userSpaceOnUse">
		<stop  offset="0" style="stop-color:#0E2447"/>
		<stop  offset="1" style="stop-color:#0F1F38"/>
	</radialGradient>
	<path id="XMLID_275_" class="st7" d="M296.7,144.3c0.6-0.5,1.4-0.9,2.5-1.3c1.1-0.4,2.2-0.6,3.5-0.7c1.2-0.1,2.4-0.1,3.7,0
		c1.2,0.1,2.3,0.4,10.9,20.4l2.4-0.8l-1.2-19c0.8-0.6,1.9-1,3.4-1.2c1.5-0.2,3-0.3,4.5-0.3c1.5,0.1,2.9,0.2,4.2,0.5
		c1.3,0.3,2.2,0.6,2.6,1l-0.5,42.8c-0.8,1.1-1.9,1.9-3.4,2.2c-1.4,0.4-2.8,0.5-4.2,0.5c-1.4-0.1-2.7-0.3-3.8-0.6
		c-1.1-0.4-1.8-0.7-2-1.1l-7.9-16.9l-0.4,18.2c-0.7,0.3-1.7,0.6-3.1,0.7c-1.4,0.1-2.8,0.2-4.2,0.1c-1.4-0.1-2.8-0.2-4-0.5
		c-1.2-0.2-2.1-0.6-2.5-1L296.7,144.3z"/>
	<radialGradient id="XMLID_9_" cx="365.2884" cy="165.0205" r="22.8861" gradientUnits="userSpaceOnUse">
		<stop  offset="0" style="stop-color:#0E2447"/>
		<stop  offset="1" style="stop-color:#0F1F38"/>
	</radialGradient>
	<path id="XMLID_273_" class="st8" d="M382.9,162.7l0.5,23.4c-0.2,0.5-0.7,0.9-1.6,1.3c-0.8,0.3-1.7,0.5-2.7,0.6c-1,0.1-2,0-3-0.2
		c-1-0.2-1.8-0.6-2.3-1.1v-3.9c-2.9,2.3-5.6,3.8-8.1,4.5c-2.5,0.7-4.7,0.8-6.7,0.4c-2-0.5-3.7-1.4-5.3-2.9c-1.5-1.5-2.8-3.3-3.8-5.4
		c-1-2.1-1.7-4.5-2.2-7c-0.5-2.6-0.7-5.1-0.6-7.8c0.1-2.6,0.4-5.2,1-7.8c0.6-2.5,1.5-4.8,2.7-6.9c1.2-2,2.7-3.8,4.5-5.1
		c1.8-1.4,3.9-2.2,6.3-2.6c1.6-0.2,3.2-0.3,4.7-0.1c1.5,0.1,2.9,0.4,4.1,0.7c1.3,0.4,2.4,0.8,3.4,1.4c1,0.6,1.8,1.2,2.5,1.9
		c0.2,0.3,0.4,0.7,0.5,1.3c0.1,0.6,0.1,1.3,0.1,2.1c-0.1,0.8-0.2,1.6-0.5,2.3c-0.2,0.8-0.6,1.5-1,2.1c-0.4,0.6-0.9,1.1-1.5,1.4
		c-0.6,0.3-1.3,0.3-2.1,0.1c-2.4-0.6-4.4-0.8-6.1-0.6c-1.7,0.2-3,0.7-4.1,1.6c-1.1,0.8-1.9,1.8-2.4,3c-0.5,1.2-0.9,2.5-1.1,3.8
		c-0.2,1.3-0.3,2.5-0.2,3.7c0.1,1.2,0.1,2.2,0.3,3c0.3,1.8,0.9,3.2,1.9,4.4c1,1.2,2.1,1.9,3.4,2.3c1.3,0.4,2.6,0.2,4-0.3
		c1.4-0.6,2.7-1.7,3.8-3.5l-4,0.4c-1,0.1-1.8-0.1-2.4-0.6c-0.6-0.5-1.1-1-1.4-1.8c-0.3-0.7-0.5-1.5-0.5-2.4c0-0.9,0.1-1.7,0.2-2.5
		c0.2-0.8,0.4-1.5,0.7-2.1c0.3-0.6,0.7-1,1.1-1.2L382.9,162.7z"/>
</g>
<g id="XMLID_264_">
	<radialGradient id="XMLID_11_" cx="118.6742" cy="91.9841" r="34.1922" gradientUnits="userSpaceOnUse">
		<stop  offset="0" style="stop-color:#0E2447"/>
		<stop  offset="1" style="stop-color:#0F1F38"/>
	</radialGradient>
	<path id="XMLID_270_" class="st9" d="M146.3,103.7c-2.3,5.7-5,10.4-8.1,13.9c-3.1,3.6-6.3,6.2-9.7,7.8c-3.4,1.7-6.8,2.5-10.3,2.4
		c-3.5-0.1-6.8-0.9-10-2.5c-3.1-1.6-6-3.8-8.5-6.7c-2.5-2.9-4.6-6.3-6.1-10.3c-1.5-4-2.4-8.4-2.7-13.3c-0.3-4.9,0.3-10.1,1.8-15.6
		c1-3.8,2.8-7.3,5.4-10.4c2.6-3.1,5.6-5.8,9-7.8c3.4-2.1,7-3.5,10.8-4.3c3.8-0.8,7.5-0.8,11.1,0c3.6,0.8,6.7,2.5,9.6,5.1
		c2.8,2.6,4.9,6.3,6.3,11c0.2,1.5-0.2,2.9-1.2,4.2c-1,1.3-2.2,2.4-3.6,3.2c-1.4,0.8-3,1.3-4.6,1.4c-1.6,0.1-3-0.2-4.1-1.1
		c-1.9-2.5-3.8-4.3-5.5-5.4c-1.8-1-3.5-1.6-5.1-1.6c-1.6,0-3.1,0.4-4.5,1.3c-1.4,0.9-2.6,2-3.8,3.3c-1.1,1.3-2.1,2.8-2.9,4.4
		c-0.8,1.6-1.3,3.1-1.7,4.5c-0.6,2.1-0.7,4.4-0.4,6.7c0.3,2.3,0.9,4.5,1.8,6.5c0.9,2,2.1,3.7,3.6,5.1c1.5,1.4,3.1,2.3,4.9,2.5
		c1.8,0.3,3.7-0.2,5.7-1.3c2-1.1,4-3.2,6.1-6.4c0.3-1.1,0.9-1.9,1.8-2.6c0.9-0.6,2-1,3.2-1.2c1.2-0.2,2.5-0.1,3.8,0.1
		c1.3,0.2,2.6,0.6,3.7,1.3c1.2,0.6,2.1,1.4,2.9,2.3C145.9,101.3,146.3,102.4,146.3,103.7z"/>
	<radialGradient id="XMLID_12_" cx="193.8586" cy="92.2724" r="35.3882" gradientUnits="userSpaceOnUse">
		<stop  offset="0" style="stop-color:#0E2447"/>
		<stop  offset="1" style="stop-color:#0F1F38"/>
	</radialGradient>
	<path id="XMLID_267_" class="st10" d="M186.1,124c-0.8,1.1-1.9,1.9-3.3,2.5c-1.5,0.5-3.1,0.9-4.8,1c-1.7,0.1-3.4,0.1-5.2-0.1
		c-1.8-0.2-3.4-0.5-4.8-0.9c-1.4-0.4-2.6-0.8-3.5-1.3c-0.9-0.5-1.3-0.9-1.3-1.3L178.4,63c0.6-1.5,1.7-2.7,3.2-3.6
		c1.5-0.9,3.1-1.6,5-2c1.8-0.4,3.8-0.6,5.8-0.6c2,0,4,0.2,5.8,0.5c1.8,0.3,3.3,0.9,4.7,1.5c1.3,0.7,2.2,1.4,2.6,2.3l18.7,63.7
		c-2.1,1.3-4,2.1-5.9,2.6c-1.8,0.5-3.6,0.7-5.3,0.6c-1.7-0.1-3.4-0.3-5-0.8c-1.6-0.5-3.3-1-4.9-1.5l-3.7-26.1l-10.6-0.3L186.1,124z
		 M198.5,85c-0.7-4.3-1.4-7.4-2.3-9.1c-0.8-1.7-1.6-2.4-2.5-2.1c-0.8,0.3-1.6,1.6-2.4,3.6c-0.8,2.1-1.5,4.7-2.1,7.9L198.5,85z"/>
	<radialGradient id="XMLID_13_" cx="276.1293" cy="92.7614" r="36.36" gradientUnits="userSpaceOnUse">
		<stop  offset="0" style="stop-color:#0E2447"/>
		<stop  offset="1" style="stop-color:#0F1F38"/>
	</radialGradient>
	<path id="XMLID_265_" class="st11" d="M245,60c1.2-1.5,2.7-2.6,4.4-3.2c1.7-0.6,3.5-0.9,5.2-1c1.8-0.1,3.5,0.1,5,0.5
		c1.6,0.4,2.8,0.9,3.7,1.4l12.5,29.4l9.4-28.4c0.5-0.8,1.3-1.4,2.4-1.9c1.1-0.4,2.3-0.7,3.7-0.9c1.4-0.1,2.8-0.2,4.2-0.1
		c1.4,0.1,2.8,0.2,3.9,0.5c1.2,0.2,2.2,0.5,3,0.9c0.8,0.4,1.2,0.7,1.3,1.1l3.6,63.3c-1.4,2.4-3.1,4.1-5,4.9c-2,0.8-3.9,1.2-5.8,1.2
		c-1.9,0-3.6-0.4-5.1-1c-1.5-0.7-2.4-1.3-2.8-1.9c-0.1,0-0.1-0.7-0.2-2.1c-0.1-1.4-0.1-3.1-0.1-5.2c0-2-0.1-4.3-0.1-6.6
		c-0.1-2.4-0.1-4.6-0.1-6.6c0-2-0.1-3.8-0.1-5.1c0-1.4-0.1-2-0.1-2c-0.1,0-0.3,0.7-0.6,2c-0.3,1.4-0.8,3.1-1.2,5.1
		c-0.5,2.1-1,4.3-1.5,6.6c-0.5,2.4-1.1,4.6-1.5,6.6c-0.5,2.1-0.9,3.8-1.2,5.2c-0.3,1.4-0.5,2.1-0.6,2.1c-1,0.8-2,1.3-3.1,1.8
		c-1.1,0.4-2.3,0.1-3.6-0.9l-9-26.6l0.4,26.9c-0.8,1-2,1.8-3.6,2.6c-1.6,0.7-3.4,1.1-5.3,1.2c-1.9,0-3.9-0.4-5.8-1.2
		c-2-0.8-3.8-2.3-5.3-4.4L245,60z"/>
</g>
<g id="XMLID_27_">
	<g>
		<linearGradient id="SVGID_1_" gradientUnits="userSpaceOnUse" x1="31.7831" y1="53.1471" x2="31.7831" y2="183.4691">
			<stop  offset="0" style="stop-color:#EDDC0B"/>
			<stop  offset="0.4839" style="stop-color:#EDDC48"/>
			<stop  offset="1" style="stop-color:#EDDC0B"/>
		</linearGradient>
		<path class="st12" d="M15.8,152.6c-0.3-0.8-0.5-1.7-0.7-2.7c-0.2-1-0.3-2.1-0.3-3.2c0-1.1,0.1-2.1,0.3-3.1c0.2-1,0.6-1.8,1-2.5
			l30.7-0.7c0.5,0.2,0.9,0.7,1.3,1.5c0.4,0.8,0.6,1.7,0.6,2.8c0,1.1-0.1,2.3-0.5,3.6c-0.4,1.3-1.1,2.6-2.1,3.9H37
			c0,1.2,0,2.6,0.1,4.3c0,1.7,0.1,3.5,0.1,5.5c0,2,0.1,4,0.1,6c0.1,2.1,0.1,4.1,0.1,6c0,2,0.1,3.8,0.1,5.5c0,1.7,0.1,3.1,0.1,4.3
			c-0.2,0.8-0.6,1.3-1.3,1.7c-0.7,0.4-1.5,0.7-2.5,0.8c-0.9,0.1-1.9,0.2-3,0.1c-1.1-0.1-2-0.3-2.9-0.5c-0.9-0.2-1.7-0.5-2.3-0.8
			c-0.6-0.3-1-0.7-1.1-1.1l1-31.9L15.8,152.6z"/>
		<linearGradient id="SVGID_2_" gradientUnits="userSpaceOnUse" x1="79.9422" y1="53.1471" x2="79.9422" y2="183.4691">
			<stop  offset="0" style="stop-color:#EDDC0B"/>
			<stop  offset="0.4839" style="stop-color:#EDDC48"/>
			<stop  offset="1" style="stop-color:#EDDC0B"/>
		</linearGradient>
		<path class="st13" d="M62.4,145.4c1.7-1.1,3.6-2,5.8-2.9c2.2-0.8,4.4-1.4,6.8-1.8c2.3-0.4,4.7-0.5,7-0.3c2.3,0.2,4.4,0.7,6.3,1.5
			c1.9,0.8,3.5,2.1,4.8,3.7c1.3,1.6,2.2,3.7,2.6,6.3c0,1.3-0.2,2.6-0.7,3.7c-0.5,1.2-1.1,2.3-1.8,3.4c-0.7,1.1-1.6,2.2-2.5,3.2
			c-0.9,1-1.9,2-2.8,3L98,180.2c-0.4,1.4-1.2,2.4-2.3,3.2c-1.1,0.8-2.5,1.4-3.9,1.8c-1.5,0.4-3,0.7-4.6,0.8c-1.6,0.1-3,0.2-4.2,0.3
			l-8.3-16.4l0.1,15.1c-0.5,1.1-1.4,1.9-2.8,2.3c-1.4,0.4-2.8,0.5-4.4,0.4c-1.5-0.2-2.9-0.5-4-1.1c-1.2-0.6-1.7-1.3-1.7-2.2
			L62.4,145.4z M74.3,157.6c0.6,0.2,1.4,0.2,2.3,0.1c1-0.1,1.9-0.4,2.9-0.8c1-0.4,1.8-0.9,2.6-1.7c0.8-0.7,1.3-1.6,1.6-2.8
			c0.1-0.9-0.2-1.6-0.8-2.1c-0.6-0.5-1.3-0.9-2.3-1.1c-0.9-0.2-2-0.2-3.2-0.1c-1.2,0.1-2.3,0.4-3.3,0.9L74.3,157.6z"/>
		<linearGradient id="SVGID_3_" gradientUnits="userSpaceOnUse" x1="130.9487" y1="53.1471" x2="130.9487" y2="183.4691">
			<stop  offset="0" style="stop-color:#EDDC0B"/>
			<stop  offset="0.4839" style="stop-color:#EDDC48"/>
			<stop  offset="1" style="stop-color:#EDDC0B"/>
		</linearGradient>
		<path class="st14" d="M126,184.2c-0.5,0.7-1.2,1.2-2.2,1.6c-1,0.4-2,0.6-3.1,0.6c-1.1,0.1-2.2,0-3.4-0.1c-1.1-0.1-2.2-0.3-3.1-0.6
			c-0.9-0.2-1.7-0.5-2.3-0.8c-0.6-0.3-0.9-0.6-0.8-0.9l9.9-39.6c0.4-1,1.1-1.8,2.1-2.4c1-0.6,2-1,3.2-1.3c1.2-0.3,2.5-0.4,3.8-0.4
			c1.3,0,2.6,0.1,3.7,0.3c1.2,0.2,2.2,0.6,3,1c0.9,0.4,1.4,0.9,1.7,1.5l12.2,41.4c-1.4,0.8-2.6,1.4-3.8,1.7
			c-1.2,0.3-2.4,0.4-3.5,0.4c-1.1,0-2.2-0.2-3.3-0.5c-1.1-0.3-2.1-0.6-3.2-1l-2.4-17l-6.9-0.2L126,184.2z M134.1,158.8
			c-0.5-2.8-0.9-4.8-1.5-5.9c-0.5-1.1-1.1-1.6-1.6-1.4c-0.5,0.2-1.1,1-1.6,2.4c-0.5,1.4-1,3.1-1.4,5.1L134.1,158.8z"/>
		<linearGradient id="SVGID_4_" gradientUnits="userSpaceOnUse" x1="178.3505" y1="53.1471" x2="178.3505" y2="183.4691">
			<stop  offset="0" style="stop-color:#EDDC0B"/>
			<stop  offset="0.4839" style="stop-color:#EDDC48"/>
			<stop  offset="1" style="stop-color:#EDDC0B"/>
		</linearGradient>
		<path class="st15" d="M167.1,185.9c-0.8-0.5-1.4-1.1-1.8-1.8c-0.4-0.8-0.6-1.6-0.7-2.5c-0.1-0.9-0.1-1.8,0.1-2.7
			c0.1-0.9,0.3-1.7,0.5-2.5c0.2-0.8,0.5-1.4,0.7-1.9c0.2-0.5,0.4-0.8,0.5-0.8l6.3-0.3l0.1-21.9h-6c-0.3-0.1-0.8-0.7-1.3-1.6
			c-0.5-0.9-0.9-2-1.1-3.2c-0.2-1.2-0.1-2.4,0.2-3.6c0.4-1.2,1.2-2.1,2.7-2.7l22.5,0.1c0.6,0.6,1,1.4,1.4,2.2
			c0.4,0.8,0.6,1.7,0.7,2.7c0.1,1,0,2-0.4,3c-0.3,1.1-0.9,2.1-1.8,3.2l-6.6-0.1l0.2,22h7.5c0.2,0.2,0.5,0.8,0.8,1.7
			c0.4,1,0.6,2.1,0.8,3.4c0.1,1.3,0.1,2.6-0.1,3.9c-0.2,1.3-0.9,2.4-1.8,3.3L167.1,185.9z"/>
		<linearGradient id="SVGID_5_" gradientUnits="userSpaceOnUse" x1="223.6369" y1="53.1471" x2="223.6369" y2="183.4691">
			<stop  offset="0" style="stop-color:#EDDC0B"/>
			<stop  offset="0.4839" style="stop-color:#EDDC48"/>
			<stop  offset="1" style="stop-color:#EDDC0B"/>
		</linearGradient>
		<path class="st16" d="M205.4,142.8c0.6-0.5,1.4-0.9,2.5-1.3c1.1-0.4,2.2-0.6,3.5-0.7c1.2-0.1,2.4-0.1,3.7,0
			c1.2,0.1,2.3,0.4,3.1,0.8l9.7,23.8l-0.7-24.1c0.8-0.6,1.9-1,3.4-1.2c1.5-0.2,3-0.3,4.5-0.3c1.5,0.1,2.9,0.2,4.2,0.5
			c1.3,0.3,2.2,0.6,2.6,1l-0.5,42.8c-0.8,1.1-1.9,1.9-3.4,2.2c-1.4,0.4-2.8,0.5-4.2,0.5c-1.4-0.1-2.7-0.3-3.8-0.6
			c-1.1-0.4-1.8-0.7-2-1.1l-7.9-16.9l-0.4,18.2c-0.7,0.3-1.7,0.6-3.1,0.7c-1.4,0.1-2.8,0.2-4.2,0.1c-1.4-0.1-2.8-0.2-4-0.5
			c-1.2-0.2-2.1-0.6-2.5-1L205.4,142.8z"/>
		<linearGradient id="SVGID_6_" gradientUnits="userSpaceOnUse" x1="269.5995" y1="53.1471" x2="269.5995" y2="183.4691">
			<stop  offset="0" style="stop-color:#EDDC0B"/>
			<stop  offset="0.4839" style="stop-color:#EDDC48"/>
			<stop  offset="1" style="stop-color:#EDDC0B"/>
		</linearGradient>
		<path class="st17" d="M258.4,185.9c-0.8-0.5-1.4-1.1-1.8-1.8c-0.4-0.8-0.6-1.6-0.7-2.5c-0.1-0.9-0.1-1.8,0.1-2.7
			c0.1-0.9,0.3-1.7,0.5-2.5c0.2-0.8,0.5-1.4,0.7-1.9c0.2-0.5,0.4-0.8,0.5-0.8l6.3-0.3l0.1-21.9h-6c-0.3-0.1-0.8-0.7-1.3-1.6
			c-0.5-0.9-0.9-2-1.1-3.2c-0.2-1.2-0.1-2.4,0.2-3.6c0.4-1.2,1.2-2.1,2.7-2.7l22.5,0.1c0.6,0.6,1,1.4,1.4,2.2
			c0.4,0.8,0.6,1.7,0.7,2.7c0.1,1,0,2-0.4,3c-0.3,1.1-0.9,2.1-1.8,3.2l-6.6-0.1l0.2,22h7.5c0.2,0.2,0.5,0.8,0.8,1.7
			c0.4,1,0.6,2.1,0.8,3.4c0.1,1.3,0.1,2.6-0.1,3.9c-0.2,1.3-0.9,2.4-1.8,3.3L258.4,185.9z"/>
		<linearGradient id="SVGID_7_" gradientUnits="userSpaceOnUse" x1="314.8856" y1="53.1471" x2="314.8856" y2="183.4691">
			<stop  offset="0" style="stop-color:#EDDC0B"/>
			<stop  offset="0.4839" style="stop-color:#EDDC48"/>
			<stop  offset="1" style="stop-color:#EDDC0B"/>
		</linearGradient>
		<path class="st18" d="M296.7,142.8c0.6-0.5,1.4-0.9,2.5-1.3c1.1-0.4,2.2-0.6,3.5-0.7c1.2-0.1,2.4-0.1,3.7,0
			c1.2,0.1,2.3,0.4,3.1,0.8l9.7,23.8l-0.7-24.1c0.8-0.6,1.9-1,3.4-1.2c1.5-0.2,3-0.3,4.5-0.3c1.5,0.1,2.9,0.2,4.2,0.5
			c1.3,0.3,2.2,0.6,2.6,1l-0.5,42.8c-0.8,1.1-1.9,1.9-3.4,2.2c-1.4,0.4-2.8,0.5-4.2,0.5c-1.4-0.1-2.7-0.3-3.8-0.6
			c-1.1-0.4-1.8-0.7-2-1.1l-7.9-16.9l-0.4,18.2c-0.7,0.3-1.7,0.6-3.1,0.7c-1.4,0.1-2.8,0.2-4.2,0.1c-1.4-0.1-2.8-0.2-4-0.5
			c-1.2-0.2-2.1-0.6-2.5-1L296.7,142.8z"/>
		<linearGradient id="SVGID_8_" gradientUnits="userSpaceOnUse" x1="365.2835" y1="53.1471" x2="365.2835" y2="183.4691">
			<stop  offset="0" style="stop-color:#EDDC0B"/>
			<stop  offset="0.4839" style="stop-color:#EDDC48"/>
			<stop  offset="1" style="stop-color:#EDDC0B"/>
		</linearGradient>
		<path class="st19" d="M382.9,161.2l0.5,23.4c-0.2,0.5-0.7,0.9-1.6,1.3c-0.8,0.3-1.7,0.5-2.7,0.6c-1,0.1-2,0-3-0.2
			c-1-0.2-1.8-0.6-2.3-1.1v-3.9c-2.9,2.3-5.6,3.8-8.1,4.5c-2.5,0.7-4.7,0.8-6.7,0.4c-2-0.5-3.7-1.4-5.3-2.9
			c-1.5-1.5-2.8-3.3-3.8-5.4c-1-2.1-1.7-4.5-2.2-7c-0.5-2.6-0.7-5.1-0.6-7.8c0.1-2.6,0.4-5.2,1-7.8c0.6-2.5,1.5-4.8,2.7-6.9
			c1.2-2,2.7-3.8,4.5-5.1c1.8-1.4,3.9-2.2,6.3-2.6c1.6-0.2,3.2-0.3,4.7-0.1c1.5,0.1,2.9,0.4,4.1,0.7c1.3,0.4,2.4,0.8,3.4,1.4
			c1,0.6,1.8,1.2,2.5,1.9c0.2,0.3,0.4,0.7,0.5,1.3c0.1,0.6,0.1,1.3,0.1,2.1c-0.1,0.8-0.2,1.6-0.5,2.3c-0.2,0.8-0.6,1.5-1,2.1
			c-0.4,0.6-0.9,1.1-1.5,1.4c-0.6,0.3-1.3,0.3-2.1,0.1c-2.4-0.6-4.4-0.8-6.1-0.6c-1.7,0.2-3,0.7-4.1,1.6c-1.1,0.8-1.9,1.8-2.4,3
			c-0.5,1.2-0.9,2.5-1.1,3.8c-0.2,1.3-0.3,2.5-0.2,3.7c0.1,1.2,0.1,2.2,0.3,3c0.3,1.8,0.9,3.2,1.9,4.4c1,1.2,2.1,1.9,3.4,2.3
			c1.3,0.4,2.6,0.2,4-0.3c1.4-0.6,2.7-1.7,3.8-3.5l-4,0.4c-1,0.1-1.8-0.1-2.4-0.6c-0.6-0.5-1.1-1-1.4-1.8c-0.3-0.7-0.5-1.5-0.5-2.4
			c0-0.9,0.1-1.7,0.2-2.5c0.2-0.8,0.4-1.5,0.7-2.1c0.3-0.6,0.7-1,1.1-1.2L382.9,161.2z"/>
	</g>
</g>
<g id="XMLID_10_">
	<linearGradient id="XMLID_14_" gradientUnits="userSpaceOnUse" x1="118.6644" y1="53.1471" x2="118.6644" y2="183.4691">
		<stop  offset="0" style="stop-color:#EDDC0B"/>
		<stop  offset="0.4839" style="stop-color:#EDDC48"/>
		<stop  offset="1" style="stop-color:#EDDC0B"/>
	</linearGradient>
	<path id="XMLID_25_" class="st20" d="M146.3,102.2c-2.3,5.7-5,10.4-8.1,13.9c-3.1,3.6-6.3,6.2-9.7,7.8c-3.4,1.7-6.8,2.5-10.3,2.4
		c-3.5-0.1-6.8-0.9-10-2.5c-3.1-1.6-6-3.8-8.5-6.7c-2.5-2.9-4.6-6.3-6.1-10.3c-1.5-4-2.4-8.4-2.7-13.3c-0.3-4.9,0.3-10.1,1.8-15.6
		c1-3.8,2.8-7.3,5.4-10.4c2.6-3.1,5.6-5.8,9-7.8c3.4-2.1,7-3.5,10.8-4.3c3.8-0.8,7.5-0.8,11.1,0c3.6,0.8,6.7,2.5,9.6,5.1
		c2.8,2.6,4.9,6.3,6.3,11c0.2,1.5-0.2,2.9-1.2,4.2c-1,1.3-2.2,2.4-3.6,3.2c-1.4,0.8-3,1.3-4.6,1.4c-1.6,0.1-3-0.2-4.1-1.1
		c-1.9-2.5-3.8-4.3-5.5-5.4c-1.8-1-3.5-1.6-5.1-1.6c-1.6,0-3.1,0.4-4.5,1.3c-1.4,0.9-2.6,2-3.8,3.3c-1.1,1.3-2.1,2.8-2.9,4.4
		c-0.8,1.6-1.3,3.1-1.7,4.5c-0.6,2.1-0.7,4.4-0.4,6.7c0.3,2.3,0.9,4.5,1.8,6.5c0.9,2,2.1,3.7,3.6,5.1c1.5,1.4,3.1,2.3,4.9,2.5
		c1.8,0.3,3.7-0.2,5.7-1.3s4-3.2,6.1-6.4c0.3-1.1,0.9-1.9,1.8-2.6c0.9-0.6,2-1,3.2-1.2c1.2-0.2,2.5-0.1,3.8,0.1
		c1.3,0.2,2.6,0.6,3.7,1.3c1.2,0.6,2.1,1.4,2.9,2.3C145.9,99.8,146.3,100.9,146.3,102.2z"/>
	<linearGradient id="XMLID_15_" gradientUnits="userSpaceOnUse" x1="193.6675" y1="53.1471" x2="193.6675" y2="183.4691">
		<stop  offset="0" style="stop-color:#EDDC0B"/>
		<stop  offset="0.4839" style="stop-color:#EDDC48"/>
		<stop  offset="1" style="stop-color:#EDDC0B"/>
	</linearGradient>
	<path id="XMLID_22_" class="st21" d="M186.1,122.4c-0.8,1.1-1.9,1.9-3.3,2.5c-1.5,0.5-3.1,0.9-4.8,1c-1.7,0.1-3.4,0.1-5.2-0.1
		c-1.8-0.2-3.4-0.5-4.8-0.9c-1.4-0.4-2.6-0.8-3.5-1.3c-0.9-0.5-1.3-0.9-1.3-1.3l15.2-60.8c0.6-1.5,1.7-2.7,3.2-3.6
		c1.5-0.9,3.1-1.6,5-2c1.8-0.4,3.8-0.6,5.8-0.6c2,0,4,0.2,5.8,0.5c1.8,0.3,3.3,0.9,4.7,1.5c1.3,0.7,2.2,1.4,2.6,2.3l18.7,63.7
		c-2.1,1.3-4,2.1-5.9,2.6c-1.8,0.5-3.6,0.7-5.3,0.6c-1.7-0.1-3.4-0.3-5-0.8c-1.6-0.5-3.3-1-4.9-1.5L199.3,98l-10.6-0.3L186.1,122.4z
		 M198.5,83.4c-0.7-4.3-1.4-7.4-2.3-9.1c-0.8-1.7-1.6-2.4-2.5-2.1c-0.8,0.3-1.6,1.6-2.4,3.6s-1.5,4.7-2.1,7.9L198.5,83.4z"/>
	<linearGradient id="XMLID_16_" gradientUnits="userSpaceOnUse" x1="276.1172" y1="53.1471" x2="276.1172" y2="183.4691">
		<stop  offset="0" style="stop-color:#EDDC0B"/>
		<stop  offset="0.4839" style="stop-color:#EDDC48"/>
		<stop  offset="1" style="stop-color:#EDDC0B"/>
	</linearGradient>
	<path id="XMLID_20_" class="st22" d="M245,58.4c1.2-1.5,2.7-2.6,4.4-3.2c1.7-0.6,3.5-0.9,5.2-1c1.8-0.1,3.5,0.1,5,0.5
		c1.6,0.4,2.8,0.9,3.7,1.4l12.5,29.4l9.4-28.4c0.5-0.8,1.3-1.4,2.4-1.9c1.1-0.4,2.3-0.7,3.7-0.9c1.4-0.1,2.8-0.2,4.2-0.1
		c1.4,0.1,2.8,0.2,3.9,0.5c1.2,0.2,2.2,0.5,3,0.9c0.8,0.4,1.2,0.7,1.3,1.1l3.6,63.3c-1.4,2.4-3.1,4.1-5,4.9c-2,0.8-3.9,1.2-5.8,1.2
		c-1.9,0-3.6-0.4-5.1-1c-1.5-0.7-2.4-1.3-2.8-1.9c-0.1,0-0.1-0.7-0.2-2.1c-0.1-1.4-0.1-3.1-0.1-5.2c0-2-0.1-4.3-0.1-6.6
		c-0.1-2.4-0.1-4.6-0.1-6.6c0-2-0.1-3.8-0.1-5.1c0-1.4-0.1-2-0.1-2c-0.1,0-0.3,0.7-0.6,2c-0.3,1.4-0.8,3.1-1.2,5.1
		c-0.5,2.1-1,4.3-1.5,6.6c-0.5,2.4-1.1,4.6-1.5,6.6c-0.5,2.1-0.9,3.8-1.2,5.2c-0.3,1.4-0.5,2.1-0.6,2.1c-1,0.8-2,1.3-3.1,1.8
		c-1.1,0.4-2.3,0.1-3.6-0.9l-9-26.6l0.4,26.9c-0.8,1-2,1.8-3.6,2.6c-1.6,0.7-3.4,1.1-5.3,1.2c-1.9,0-3.9-0.4-5.8-1.2
		c-2-0.8-3.8-2.3-5.3-4.4L245,58.4z"/>
</g>
</svg>
