<svg id="Layer_1" data-name="Layer 1" xmlns="http://www.w3.org/2000/svg" viewBox="0 0 500 500"><defs><style>.cls-1{fill:#fff;}.cls-2{fill:#0084f7;}</style></defs><title>Artboard 1</title><circle class="cls-1" cx="250" cy="250" r="238.64"/><path class="cls-2" d="M250,11.36C118.21,11.36,11.36,118.21,11.36,250S118.21,488.64,250,488.64,488.64,381.77,488.64,250,381.77,11.36,250,11.36ZM299.67,381.2q-18.42,7.27-29.39,11.07a77.55,77.55,0,0,1-25.5,3.82q-22.3,0-34.69-10.89t-12.34-27.62a100.32,100.32,0,0,1,.91-13.31c.63-4.53,1.62-9.62,3-15.33L217,274.64c1.35-5.21,2.53-10.16,3.45-14.77a65.48,65.48,0,0,0,1.37-12.79c0-6.91-1.43-11.76-4.28-14.49s-8.32-4.06-16.42-4.06a43.1,43.1,0,0,0-12.22,1.82c-4.14,1.27-7.74,2.42-10.69,3.56l4.06-16.73q15.09-6.15,28.89-10.53a85.35,85.35,0,0,1,26.06-4.4c14.77,0,26.16,3.6,34.18,10.71s12,16.4,12,27.8q0,3.55-.83,12.46a83.41,83.41,0,0,1-3.07,16.38l-15.29,54.14c-1.25,4.34-2.36,9.31-3.37,14.87a78.62,78.62,0,0,0-1.47,12.65c0,7.19,1.6,12.1,4.83,14.71s8.79,3.92,16.71,3.92a48.46,48.46,0,0,0,12.65-2,71.91,71.91,0,0,0,10.22-3.43ZM297,161.44a36.5,36.5,0,0,1-25.76,9.94,36.88,36.88,0,0,1-25.86-9.94c-7.15-6.63-10.77-14.69-10.77-24.1s3.64-17.48,10.77-24.16a36.62,36.62,0,0,1,25.86-10,36.21,36.21,0,0,1,25.76,10c7.13,6.69,10.71,14.77,10.71,24.16A31.71,31.71,0,0,1,297,161.44Z"/></svg>