<?xml version="1.0" encoding="utf-8"?>
<!-- Generator: Adobe Illustrator 20.1.0, SVG Export Plug-In . SVG Version: 6.00 Build 0)  -->
<svg version="1.1" id="Layer_1" xmlns="http://www.w3.org/2000/svg" xmlns:xlink="http://www.w3.org/1999/xlink" x="0px" y="0px"
	 viewBox="0 0 242.2 250" style="enable-background:new 0 0 242.2 250;" xml:space="preserve">
<style type="text/css">
	.st0{fill:#FFFFFF;}
	.st1{fill:#F3A300;}
</style>
<g>
	<g>
		
			<image style="overflow:visible;opacity:0.3;" width="1073" height="1132" xlink:href="8FE5399AD8AE0D70.png"  transform="matrix(0.24 0 0 0.24 -10.9928 -7.3088)">
		</image>
		<g>
			<polygon class="st0" points="239.2,203.1 121.4,249.6 3.6,203.1 3.6,0 239.2,0 			"/>
		</g>
	</g>
	<g>
		<g>
			<path class="st1" d="M114.7,90c0,12.8,2.5,23.4,7.2,31.5C116.3,134,102.8,142,84.2,142c-15.1,0-31-5.3-40.8-13.4l13.2-25.3
				c7.6,9.4,16,14.1,24.8,14.1c6.9,0,10.4-2.9,10.4-8.8c0-5.9-3.5-8.8-10.4-8.8H63.1V82.4l19.2-18.3H48.7V39.9h71.1v18.7L98.1,79.5
				l4.3,1c4.6,1.1,8.8,3.1,12.3,6C114.7,87.7,114.7,88.8,114.7,90z M212,90c0,33.1-16.6,51.6-46.2,51.6c-18.4,0-31.7-7-39.2-20
				c-4.7-8.2-7.2-18.8-7.2-31.5c0-1.2,0-2.4,0.1-3.5c1.1-30.9,17.4-47.9,46.3-47.9C195.4,38.6,212,56.9,212,90z M177.7,90
				c0-20.5-3-27.2-12-27.2c-9.1,0-12.1,6.8-12.1,27.2c0,20.5,3,27.4,12.1,27.4C174.7,117.4,177.7,110.5,177.7,90z"/>
		</g>
	</g>
	<g>
		<g>
			<path class="st1" d="M48.9,165.1l-0.9,2.4h-3.4l5.6-12.9h3.4l5.4,12.9h-3.5l-0.9-2.4H48.9z M51.7,157.8l-1.9,4.8h3.7L51.7,157.8z
				"/>
			<path class="st1" d="M72.5,167.4l-5.9-7.9v7.9h-3.1v-12.9h2.9l6,8v-8h3.1v12.9H72.5z"/>
			<path class="st1" d="M81.3,167.4v-12.9h3.3v12.9H81.3z"/>
			<path class="st1" d="M94.1,167.4l-5-12.9h3.5l3.3,9.5l3.3-9.5h3.4l-5.1,12.9H94.1z"/>
			<path class="st1" d="M110.5,157.1v2.6h6.2v2.6h-6.2v2.6h7v2.6h-10.3v-12.9h10.1v2.6H110.5z"/>
			<path class="st1" d="M128.8,163.8L128.8,163.8h-2.6v3.6h-3.3v-12.9h5.8c3.4,0,5.4,1.6,5.4,4.5c0,2-0.8,3.4-2.3,4.1l2.7,4.3h-3.7
				L128.8,163.8z M128.7,161.2c1.4,0,2.2-0.7,2.2-2.1c0-1.3-0.8-2-2.2-2h-2.5v4.1H128.7z"/>
			<path class="st1" d="M149.6,155.8l-1.2,2.6c-1.4-0.8-3.1-1.3-4.1-1.3c-0.9,0-1.4,0.3-1.4,0.9c0,2.2,6.8,1,6.8,5.6
				c0,2.6-2.3,3.9-5.2,3.9c-2.2,0-4.4-0.8-5.9-2.1l1.3-2.5c1.3,1.2,3.3,1.9,4.7,1.9c1,0,1.7-0.4,1.7-1.1c0-2.3-6.8-0.9-6.8-5.5
				c0-2.4,2-3.9,5.1-3.9C146.4,154.4,148.3,155,149.6,155.8z"/>
			<path class="st1" d="M157.7,165.1l-0.9,2.4h-3.4l5.6-12.9h3.4l5.4,12.9h-3.5l-0.9-2.4H157.7z M160.5,157.8l-1.9,4.8h3.7
				L160.5,157.8z"/>
			<path class="st1" d="M178.1,163.8L178.1,163.8h-2.6v3.6h-3.3v-12.9h5.8c3.4,0,5.4,1.6,5.4,4.5c0,2-0.8,3.4-2.3,4.1l2.7,4.3H180
				L178.1,163.8z M178,161.2c1.4,0,2.2-0.7,2.2-2.1c0-1.3-0.8-2-2.2-2h-2.5v4.1H178z"/>
			<path class="st1" d="M188.9,167.4v-12.9h3.3v12.9H188.9z"/>
			<path class="st1" d="M211.2,161c0,3.8-3,6.6-7,6.6c-4,0-7-2.8-7-6.6c0-3.8,3-6.5,7-6.5C208.2,154.4,211.2,157.2,211.2,161z
				 M200.6,161c0,2.2,1.7,3.9,3.6,3.9c2,0,3.6-1.7,3.6-3.9c0-2.2-1.6-3.8-3.6-3.8C202.3,157.2,200.6,158.8,200.6,161z"/>
		</g>
	</g>
</g>
</svg>
