<?xml version="1.0" encoding="utf-8"?>
<!-- Generator: Adobe Illustrator 20.1.0, SVG Export Plug-In . SVG Version: 6.00 Build 0)  -->
<svg version="1.1" id="Layer_1" xmlns="http://www.w3.org/2000/svg" xmlns:xlink="http://www.w3.org/1999/xlink" x="0px" y="0px"
	 viewBox="0 0 566.2 202.3" style="enable-background:new 0 0 566.2 202.3;" xml:space="preserve">
<style type="text/css">
	.st0{fill:#0070C4;}
	.st1{fill:#FFFFFF;}
	.st2{fill:none;stroke:#FFFFFF;stroke-width:1.0637;stroke-miterlimit:10;}
	.st3{fill:#FAF7F5;}
</style>
<g>
	<g>
		
			<image style="overflow:visible;opacity:0.3;" width="2477" height="961" xlink:href="C1293FEF4ED17DA9.png"  transform="matrix(0.24 0 0 0.24 -18.7303 -9.3651)">
		</image>
		<g>
			<path class="st0" d="M497.7,202.3H0V0h566.2v133.8C566.2,171.6,535.5,202.3,497.7,202.3z"/>
		</g>
	</g>
	<g>
		<g>
			<g>
				<path class="st1" d="M253.4,112.5l-0.5,0.7c-1.3-1.2-3-1.9-4.8-1.9c-3.9,0-7,3-7,6.7c0,3.7,3.1,6.8,7,6.8c1.8,0,3.5-0.7,4.8-1.9
					l0.6,0.6c-1.4,1.3-3.4,2.1-5.4,2.1c-4.3,0-7.9-3.4-7.9-7.6c0-4.2,3.5-7.6,7.9-7.6C250.1,110.4,252,111.2,253.4,112.5z"/>
				<path class="st1" d="M269,119.4c0,4-2.3,6.3-6.2,6.3c-3.9,0-6.2-2.3-6.2-6.3v-9h0.9v9c0,3.4,1.9,5.4,5.2,5.4
					c3.3,0,5.2-2,5.2-5.4v-9h0.9V119.4z"/>
				<path class="st1" d="M280.6,120.5c-0.4,0.1-0.8,0.1-1.3,0.1h-4.5v5.1h-0.9v-15.2h5.4c3.8,0,5.9,1.8,5.9,5c0,2.6-1.3,4.3-3.7,4.9
					l3.8,5.3h-1.1L280.6,120.5z M279.3,119.7c3.2,0,5-1.5,5-4.2c0-2.7-1.8-4.1-5-4.1h-4.5v8.4H279.3z"/>
				<path class="st1" d="M298,111.6l-0.4,0.8c-1.1-0.7-2.7-1.1-4-1.1c-2.4,0-4,1-4,2.6c0,4.6,9,2.2,8.9,7.9c0,2.4-2.1,3.9-5.3,3.9
					c-2,0-4.1-0.9-5.4-2.2l0.5-0.8c1.2,1.3,3.2,2.1,5,2.1c2.6,0,4.3-1.1,4.3-2.9c0-4.8-8.9-2.3-8.9-7.8c0-2.2,2-3.6,5-3.6
					C295.2,110.4,296.9,110.9,298,111.6z"/>
				<path class="st1" d="M316.8,118c0,4.2-3.5,7.6-7.9,7.6s-7.9-3.4-7.9-7.6c0-4.2,3.5-7.6,7.9-7.6S316.8,113.8,316.8,118z M302,118
					c0,3.7,3.1,6.8,6.9,6.8c3.8,0,6.9-3,6.9-6.8c0-3.7-3.1-6.7-6.9-6.7C305.1,111.3,302,114.3,302,118z"/>
				<path class="st1" d="M251.5,133c6.9,0,11.8,4.8,11.8,11.4c0,6.6-5,11.4-11.9,11.4h-9.3V133H251.5z M246,152.4h5.6
					c4.4,0,7.8-3.3,7.8-7.9c0-4.7-3.5-8-8-8H246V152.4z"/>
				<path class="st1" d="M277.8,149c-0.3,0-0.7,0-1,0h-5.4v6.9h-3.9V133h9.3c5.8,0,9.2,2.8,9.2,7.8c0,3.7-1.7,6.2-4.7,7.4l5.1,7.6
					H282L277.8,149z M276.8,145.5c3.5,0,5.6-1.5,5.6-4.6c0-3-2-4.4-5.6-4.4h-5.4v9H276.8z"/>
				<path class="st1" d="M293.7,154c0,1.3-0.9,2.2-2.1,2.2c-1.2,0-2.1-0.9-2.1-2.2c0-1.2,0.9-2.1,2.1-2.1
					C292.8,151.9,293.7,152.7,293.7,154z"/>
				<path class="st1" d="M322.6,155.9v-9.5h-12.1v9.5h-3.9V133h3.9v9.9h12.1V133h3.9v22.9H322.6z"/>
				<path class="st1" d="M351.9,146.4c0,6-3.8,9.6-9.9,9.6s-10-3.7-10-9.6V133h3.9v13.4c0,3.9,2.4,6.2,6.1,6.2c3.7,0,6-2.3,6-6.2
					V133h3.9V146.4z"/>
				<path class="st1" d="M357.4,155.9V133h3.9v22.9H357.4z"/>
				<path class="st1" d="M375.7,136.5v19.4h-3.9v-19.4h-7.2V133h18.3v3.5H375.7z"/>
				<path class="st1" d="M396.5,149c-0.3,0-0.7,0-1,0h-5.4v6.9h-3.9V133h9.3c5.8,0,9.2,2.8,9.2,7.8c0,3.7-1.7,6.2-4.7,7.4l5.1,7.6
					h-4.4L396.5,149z M395.5,145.5c3.5,0,5.6-1.5,5.6-4.6c0-3-2-4.4-5.6-4.4h-5.4v9H395.5z"/>
				<path class="st1" d="M432.2,144.5c0,6.5-5.3,11.6-12.1,11.6c-6.8,0-12.1-5.1-12.1-11.6c0-6.6,5.3-11.5,12.1-11.5
					C426.9,132.9,432.2,137.9,432.2,144.5z M411.9,144.5c0,4.5,3.8,8.1,8.2,8.1c4.5,0,8.1-3.6,8.1-8.1c0-4.5-3.7-8.1-8.1-8.1
					C415.6,136.4,411.9,139.9,411.9,144.5z M421,130.5h-3.3l3.5-4.8l3.9,1.6L421,130.5z"/>
				<path class="st1" d="M452.3,155.9l-12.2-16.4v16.4h-3.9V133h3.8l12.2,16.4V133h3.8v22.9H452.3z"/>
			</g>
		</g>
		<g>
			<g>
				<path class="st1" d="M262.3,58.8h-13.8v12.8h15.3v3.8H244V40h19.1v3.8h-14.6V55h13.8V58.8z"/>
				<path class="st1" d="M268.8,75.4V40h5l11.4,17.9c2.6,4.2,4.7,7.9,6.4,11.5l0.1-0.1c-0.4-4.7-0.5-9-0.5-14.6V40h4.3v35.4h-4.6
					l-11.2-18c-2.5-3.9-4.8-8-6.6-11.8l-0.2,0.1c0.3,4.5,0.4,8.7,0.4,14.6v15.1H268.8z"/>
				<path class="st1" d="M308,64.3l-3.7,11.1h-4.7l12-35.4h5.5l12.1,35.4h-4.9l-3.8-11.1H308z M319.7,60.7l-3.5-10.2
					c-0.8-2.3-1.3-4.4-1.8-6.5h-0.1c-0.5,2.1-1.1,4.3-1.8,6.4L309,60.7H319.7z"/>
				<path class="st1" d="M333.4,40.5c2.3-0.5,5.6-0.7,8.8-0.7c4.9,0,8,0.9,10.3,2.9c1.8,1.6,2.8,4,2.8,6.7c0,4.7-2.9,7.8-6.7,9v0.2
					c2.7,0.9,4.4,3.5,5.2,7.2c1.2,4.9,2,8.4,2.7,9.7h-4.7c-0.6-1-1.4-4-2.4-8.5c-1.1-4.9-2.9-6.7-7.1-6.9H338v15.4h-4.6V40.5z
					 M338,56.6h4.7c4.9,0,8-2.7,8-6.7c0-4.6-3.3-6.6-8.1-6.6c-2.2,0-3.8,0.2-4.5,0.4V56.6z"/>
				<path class="st1" d="M390.5,59.9c-0.3-4.9-0.6-10.9-0.5-15.3h-0.2c-1.2,4.2-2.7,8.6-4.5,13.5l-6.3,17.2h-3.5l-5.7-16.9
					c-1.7-5-3.1-9.6-4.1-13.8h-0.1c-0.1,4.4-0.4,10.4-0.7,15.7l-0.9,15.2h-4.4l2.5-35.4h5.8l6,17.1c1.5,4.4,2.7,8.3,3.6,11.9h0.2
					c0.9-3.6,2.2-7.5,3.7-11.9l6.3-17.1h5.8l2.2,35.4h-4.5L390.5,59.9z"/>
			</g>
		</g>
		<line class="st2" x1="462.3" y1="93.9" x2="240" y2="93.9"/>
	</g>
	<g>
		<path class="st3" d="M119.2,70.6c-0.5,0.4-1,0.7-1.5,1.2c-1.6,1.7-3.2,3.5-4.7,5.2c-2,2.3-4,4.6-6.3,6.6c-1.4,1.2-2.8,2.2-4.6,2.9
			c-2,0.7-4.5,0-5.5-1.7c7.3-5.3,14.7-10.4,21.5-16.5c-0.8,0-1.5,0.4-2.2,0.7c-2.8,1.5-5.2,3.5-7.8,5.4c-3.1,2.3-6.2,4.6-9.6,6.4
			c-1.8,0.9-3.7,1.7-5.8,1.9c-2.7,0.2-4.6-0.9-6.1-3c0-0.1-0.1-0.2-0.1-0.3c0.9-0.4,1.9-0.8,2.8-1.3c2-0.9,4.1-1.8,6.1-2.6
			c2.5-1.1,5-2.1,7.5-3.2c2.4-1,4.9-2.1,7.3-3.2c2.2-1,4.4-2.2,6.6-3.2c0.2-0.1,0.3-0.2,0.4-0.4c-0.3,0-0.5-0.1-0.8,0
			c-1.8,0.5-3.6,0.9-5.3,1.6c-3.7,1.5-7.3,3.1-10.9,4.7c-2.6,1.1-5.2,2.2-7.9,3.2c-3.2,1.2-6.4,2.2-9.9,2.2c-1.3,0-2.6-0.2-3.7-0.9
			c-1.1-0.7-1.8-1.9-2-3.2c13.1-3.4,26.5-6.2,39.5-10.1c0,0,0-0.1,0-0.1c-0.2,0-0.4-0.1-0.6-0.1c-2-0.1-4,0.2-6,0.6
			c-4.2,1-8.3,2-12.5,3c-3.9,0.9-7.9,1.8-11.9,2.4c-3.2,0.5-6.4,0.7-9.7,0.1c-2.2-0.5-4.2-1.4-5.4-3.5c-0.3-0.6-0.6-1.2-0.8-1.8
			c1.9-0.1,3.6-0.2,5.4-0.4c2.8-0.3,5.6-0.5,8.4-0.9c4.2-0.6,8.5-1.2,12.7-1.8c5.2-0.7,10.4-1.4,15.6-1.7c2.5-0.1,4.9-0.1,7.3,0.4
			c1,0.2,2.1,0.6,3,1.1c1.7,0.9,2.3,2.4,2,4.3c-0.3,1.6,0,3,1.1,4.2c0.8,1,1.9,1.7,3.1,2.2c1.3,0.6,2.6,1,4.1,0.9
			c-0.3,1.1-1,1.8-1.8,2.3c-1.9,1.1-3.9,1.2-5.9,0.3c-1.1-0.5-2.1-1.2-3.2-1.8c-0.2,0.3-0.5,0.8-0.8,1.2c-1.3,2.5-2.6,5-3.9,7.5
			c-1.2,2.3-2.6,4.5-4.4,6.3c-1.2,1.2-2.5,2.2-4.3,2.3c-0.9,0-1.7-0.1-2.6-0.6c0.4-0.6,0.7-1.2,1.2-1.7c2-2.5,3.9-5,5.9-7.6
			c2.1-2.7,4.3-5.4,6.5-8.2c0.2-0.3,0.5-0.7,0.7-1C119.3,70.7,119.3,70.6,119.2,70.6z"/>
		<path class="st3" d="M157.9,65.4c0.2,0.1,0.3,0.2,0.5,0.3c4.1,2.3,8.4,4.2,12.7,6c4.5,1.9,9,3.8,13.5,5.8c1.3,0.6,2.6,1.2,4,1.8
			c-0.6,1.1-1.4,1.9-2.4,2.5c-1.7,1-3.5,1-5.3,0.5c-2.1-0.5-4.1-1.5-6-2.6c-4-2.4-7.6-5.3-11.3-8c-1.7-1.2-3.4-2.5-5.4-3.3
			c-0.3-0.1-0.7-0.2-1.1-0.3c6.7,6.1,14.1,11.2,21.5,16.5c-0.9,1.1-2,1.9-3.4,2c-1.9,0.1-3.4-0.7-4.9-1.7c-2.2-1.5-4-3.4-5.7-5.3
			c-2.2-2.5-4.4-5-6.6-7.4c-0.6-0.7-1.3-1.2-2-1.8c-0.1,0.1-0.1,0.1-0.2,0.2c0.4,0.6,0.8,1.2,1.2,1.8c2.8,3.4,5.5,6.8,8.3,10.3
			c1.6,2,3,4,4.5,6c0.1,0.1,0.1,0.2,0.2,0.3c-1.3,0.7-2.6,0.7-3.9,0.3c-1.6-0.6-2.8-1.7-3.9-3c-2-2.4-3.4-5.1-4.9-7.9
			c-1-2-2-3.9-3.1-5.9c-0.1-0.1-0.2-0.3-0.3-0.4c-0.7,0.5-1.3,1-2,1.4c-1.9,1.1-3.8,1.4-5.9,0.7c-1.2-0.4-2.2-1.2-2.8-2.4
			c-0.1-0.1-0.1-0.3-0.2-0.5c2.2,0,4.1-0.7,5.8-1.9c1.4-1,2.4-2.2,2.5-4c0-0.4,0-0.7-0.1-1.1c-0.5-2.7,0.9-4.4,3.2-5.2
			c2.4-0.9,5-1,7.6-0.9c4.5,0.1,8.9,0.6,13.3,1.2c4.8,0.7,9.7,1.4,14.5,2.1c2.4,0.3,4.9,0.7,7.3,0.9c2.7,0.3,5.4,0.4,8.1,0.6
			c0.1,0,0.1,0,0.3,0c-0.2,0.9-0.6,1.7-1.1,2.5c-1.3,1.7-3.1,2.4-5.1,2.9c-2.9,0.6-5.8,0.5-8.7,0.1c-3.2-0.5-6.4-1.1-9.6-1.8
			c-5-1.1-9.9-2.4-14.9-3.5c-1.8-0.4-3.6-0.6-5.4-0.8c-0.6-0.1-1.3,0-1.9,0.2c13.1,3.9,26.4,6.7,39.6,10.2c0,1.5-1.4,3.2-2.9,3.7
			c-2.1,0.7-4.2,0.5-6.3,0.1c-3.6-0.7-7-2-10.3-3.4c-4.2-1.8-8.4-3.7-12.6-5.5c-2.1-0.9-4.3-1.6-6.5-2.3c-0.5-0.2-1-0.1-1.6-0.2
			C157.9,65.3,157.9,65.4,157.9,65.4z"/>
		<path class="st3" d="M139.2,108.7c1.4-0.5,2.7-1,4-1.5c0.6-0.3,1.2-0.7,1.8-1.1c0.8-0.6,0.7-1.4-0.2-1.8c-1.3-0.6-2.7-1.1-4.1-1.5
			c-3.4-1-6.8-1.9-10.1-3c-3.1-1-6-2.5-8.5-4.8c-2.2-2.1-3.8-4.5-4.1-7.6c-0.2-1.9,0.2-3.6,1-5.2c0.9-1.8,2.2-3.3,3.9-4.5
			c2.3-1.6,4.6-1.9,7.1-0.4c1.4,0.9,2.7,1.8,3.7,3.1c0.2,0.3,0.4,0.6,0.5,0.9c0.2,0.6,0,1.2-0.6,1.4c-0.9,0.3-1.8,0.6-2.7,0.7
			c-1.4,0.1-2.8,0.1-4.2,0.1c-0.5,0-1,0-1.5,0.1c-0.8,0.1-1.3,0.7-1.5,1.4c-0.5,1.9,0,3.5,1.3,5c1.6,1.8,3.7,2.9,5.9,3.9
			c3.6,1.7,7.5,2.7,11.2,4c2.2,0.8,4.4,1.7,6.4,3.1c3.3,2.3,2.8,5.8,0.6,8.1c-0.9,0.9-1.9,1.6-3,2.2c-0.1,0.1-0.4,0.1-0.5,0
			c-2-0.8-4-1.7-6-2.5C139.5,108.9,139.4,108.8,139.2,108.7z M130.7,79.4c0-0.5-0.4-0.9-0.9-0.9c-0.5,0-0.9,0.5-0.8,0.9
			c0,0.5,0.4,0.8,0.8,0.8C130.3,80.3,130.7,79.9,130.7,79.4z"/>
		<path class="st3" d="M139.1,95.7c-1-0.3-1.9-0.6-2.9-0.9c-0.2-0.1-0.4-0.3-0.4-0.5c-0.1-3.5-0.1-7.1-0.2-10.6
			c-0.1-4.3-0.2-8.6-0.3-12.8c0-0.2-0.2-0.5-0.4-0.6c-1.9-0.9-2.9-2.5-3.2-4.5c-0.4-3.1,2.1-6.1,5.2-6.3c3.7-0.2,6.5,2.9,6.1,6.4
			c-0.3,2-1.3,3.5-3.1,4.4c-0.4,0.2-0.4,0.4-0.5,0.8c-0.1,4-0.1,7.9-0.2,11.9c-0.1,4.1-0.2,8.2-0.2,12.3
			C139.1,95.3,139.1,95.4,139.1,95.7z"/>
		<path class="st3" d="M140,95.8c1.1-0.4,2.1-0.8,3.2-1.3c2.3-1,4.5-2.2,6.3-3.9c1.4-1.4,2.3-3,1.9-5.1c-0.2-1.1-0.8-1.7-2-1.8
			c-0.7,0-1.3,0.1-2,0c-1.6-0.1-3.3-0.1-4.9-0.4c-2-0.3-2.4-1.5-1.1-3c1.4-1.6,3.1-2.9,5.2-3.7c1.6-0.5,3.1-0.2,4.5,0.6
			c2.5,1.5,4.3,3.6,5.3,6.3c0.8,2.1,0.7,4.2,0,6.2c-1.1,3.1-3.3,5.4-6,7.2c-0.8,0.5-1.6,1-2.5,1.4c-0.2,0.1-0.5,0.1-0.8,0.1
			c-2.3-0.8-4.7-1.6-7-2.5C140.1,95.9,140,95.8,140,95.8z M145.1,78.5c-0.5,0-0.9,0.5-0.8,0.9c0,0.5,0.4,0.8,0.9,0.8
			c0.5,0,0.9-0.4,0.8-0.9C145.9,78.9,145.5,78.5,145.1,78.5z"/>
		<path class="st3" d="M145.1,122.6c-1.5-1.6-3.4-2.3-5.4-2.8c0.7-0.3,1.3-0.6,2-0.8c0.1,0,0.2-0.1,0.3-0.2c0.9-0.6,1-1.4,0.1-2.1
			c-0.9-0.6-1.8-1.2-2.8-1.6c-3-1.1-6-2.1-8.9-3.1c-2.2-0.8-4.1-1.9-5.3-4c-1.2-2-1.4-4.6,1-6.6c0.9-0.8,1.7-1.2,3-0.6
			c1.7,0.7,3.5,1.1,5.3,1.7c0.2,0.1,0.3,0.1,0.4,0.2c-1.1,0.4-2.3,0.7-3.4,1.1c-0.4,0.1-0.8,0.4-1.1,0.7c-0.6,0.5-0.7,1.3,0,1.8
			c0.8,0.6,1.6,1.1,2.5,1.4c2.7,1,5.5,1.9,8.2,3c1.8,0.7,3.7,1.5,5,3c1.6,1.9,2.3,4,1.3,6.4C146.8,121.1,146.1,121.9,145.1,122.6z"
			/>
		<path class="st3" d="M135.6,115c-0.8,0.5-1.6,0.8-2.3,1.4c-1.4,1-1.3,1.9,0.1,2.8c1.3,0.7,2.8,1,4.2,1.3c1.6,0.3,3.2,0.7,4.7,1.4
			c2.7,1.3,3,3.9,1.7,6.2c-0.3,0.6-0.8,1.1-1.3,1.6c-0.1,0.1-0.5,0.2-0.6,0.1c-0.9-0.9-2.1-1.4-3.3-2c-0.1-0.1-0.2-0.1-0.3-0.2
			c0.3-0.2,0.6-0.4,0.9-0.6c0.7-0.6,0.7-1.2-0.2-1.5c-1.3-0.4-2.6-0.7-4-1c-2-0.5-4-0.8-5.8-1.9c-2-1.2-2.9-3.5-2.2-5.7
			c0.4-1.3,1-2.4,2-3.4c0.3-0.3,0.5-0.4,0.9-0.2c1.7,0.6,3.5,1.2,5.2,1.8C135.5,114.9,135.6,114.9,135.6,115z"/>
		<path class="st3" d="M138.1,138.7c0.3-0.6,0.7-1.1,0.9-1.7c0.7-1.9,0.2-3.5-1.7-4.4c-1.3-0.7-2.6-1.2-3.9-1.9
			c-1.1-0.6-2.1-1.3-2.6-2.5c-0.5-1.3-0.8-2.7-0.4-4.1c1.7,0.4,3.3,0.8,4.9,1.1c-0.1,0.3-0.4,0.6-0.4,0.8c0,0.3,0.3,0.6,0.5,0.7
			c1.1,0.7,2.3,1.3,3.4,1.9c0.5,0.3,1.1,0.5,1.5,0.8c2.3,1.4,3,3.1,2.3,5.7c-0.5,2-1.8,3.6-3.4,4.9
			C138.9,139.6,138.5,139.1,138.1,138.7z"/>
		<path class="st3" d="M140.5,142.3c-0.8-0.2-1.7-0.3-2.4-0.7c-2.7-1.2-4.7-3.3-5.7-6.1c-0.4-1.2-0.5-2.4-0.1-3.7
			c0-0.1,0.1-0.2,0.1-0.3c0-0.1,0.1-0.2,0.2-0.3c1.3,0.7,2.5,1.4,3.8,2.1c-1.1,1.4-0.8,2.7-0.1,4.1c0.9,1.8,2.3,3.2,4,4.4
			c0.1,0.1,0.3,0.2,0.4,0.3C140.5,142.2,140.5,142.3,140.5,142.3z"/>
		<path class="st3" d="M136.1,102.9c0.9,0.2,1.8,0.5,2.7,0.7c0.1,0,0.2,0.2,0.2,0.3c0,1.6,0,3.1,0,4.8c-1-0.4-1.9-0.6-2.7-1
			c-0.1,0-0.2-0.2-0.2-0.3c0-1.5,0-2.9-0.1-4.4C136,103,136,103,136.1,102.9z"/>
		<path class="st3" d="M136.7,141.9c0.3,0.2,0.4,0.3,0.6,0.3c0.9,0.2,1.1,0.8,1,1.7c-0.2,2.1-0.2,4.3-0.3,6.4c0,0.7-0.2,1.4-0.4,2.1
			C136.6,149,136.8,145.5,136.7,141.9z"/>
		<path class="st3" d="M138.7,119.8c-0.9-0.2-1.6-0.3-2.4-0.5c0-1.4,0-2.7,0-4.2c0.8,0.3,1.5,0.5,2.3,0.8c0.1,0,0.2,0.2,0.2,0.2
			C138.7,117.4,138.7,118.5,138.7,119.8z"/>
		<path class="st3" d="M137.3,137.5c-1.2-1.2-0.6-2.6-0.7-3.9C138.5,134.4,138.6,136.2,137.3,137.5z"/>
		<path class="st3" d="M136.4,125.3c0.6,0.1,1.2,0.2,1.8,0.3c0.3,0.1,0.5,0.5,0.2,0.7c-0.2,0.2-0.6,0.4-0.9,0.4
			C137,126.8,136.4,126,136.4,125.3z"/>
		<path class="st3" d="M134.4,142.1c0.2-0.1,0.4-0.2,0.5-0.4c0.8-0.5,0.8-0.5,1.6,0.1c-0.8,0.2-1.4,0.3-2.1,0.4
			C134.4,142.2,134.4,142.2,134.4,142.1z"/>
	</g>
</g>
</svg>
