<svg id="Layer_1" data-name="Layer 1" xmlns="http://www.w3.org/2000/svg" viewBox="0 0 500 500"><defs><style>.cls-1{fill:#0084f7;}.cls-2{fill:#fff;}</style></defs><title>Artboard 1</title><circle class="cls-1" cx="248" cy="255.53" r="241.01"/><path class="cls-2" d="M248,212.59c11.41,6,22.48,11.54,33.2,17.64,11.66,6.63,23.57,11.65,37.4,10a73.24,73.24,0,0,1,8,0L333,300c-4.81.27-9.25.57-13.69.76-17.85.77-35.76.89-53.54,2.5-10,.9-19.63,4.68-29.57,6.35-20.11,3.39-39.38,9.1-57.7,18.17a32.06,32.06,0,0,1-13,3.08c-8.86.25-13.43-7.66-8.93-15.31a27.12,27.12,0,0,1,7.56-7.93c8-5.7,16.45-10.72,24.37-16.49a97.51,97.51,0,0,0,15.62-13.55c3.28-3.69,5-8.8,7.31-13.32,1.51-2.94,2.4-6.29,4.33-8.89C226.32,241.13,237.06,227.1,248,212.59Z"/><path class="cls-2" d="M408,312c-10.94.48-21.36,1-31.78,1.38-8.68.36-17.36.69-26,1-6.13.19-8.42-1.46-9.08-7.4-2.22-20-4.21-40-6.32-59.93-.47-4.47-1.05-8.93-1.55-13.4-.45-4.08,1.12-7.18,5.24-7.94,19.52-3.61,39.08-7,59.23-10.6Zm-23-76c0-4-2.8-6.72-6.25-6.48s-5.63,2.26-5.51,5.92c.12,3.82,2.23,6,6.11,5.84A5.43,5.43,0,0,0,384.92,236Z"/><path class="cls-2" d="M242.86,174.93c3.56,8.77,9.58,13,18.49,14.1l-23.13,30.59c-16.36,21.65-32.67,43.34-49.14,64.9a35.65,35.65,0,0,1-7.66,7.13c-6,4.29-12.3,8.21-18.44,12.33a38.73,38.73,0,0,0-4.19,3.25c-7.91,7.05-9.21,13.84-4.36,23.32l-4.71,6.13-18.54-14Z"/><path class="cls-2" d="M220.3,198.73c-7,9.37-13.89,18.79-20.94,28.12q-29.94,39.6-59.92,79.17c-2.1,2.79-4.28,4.64-7.94,4.3-7-.64-10.47-6.1-8.25-13.25a25.81,25.81,0,0,1,2.37-4.72c7.58-13.58,15.13-27.18,22.81-40.7,1.15-2,2.53-4.32,4.43-5.49,9.42-5.8,15.08-14.62,20.21-24,3.4-6.19,6.52-12.58,10.4-18.46C193.81,188.05,205.33,186.54,220.3,198.73Z"/><path class="cls-2" d="M303.55,100.48c5.3,1.12,8.77,3.24,10.85,7.25a11.25,11.25,0,0,1-1.18,12.67q-15.66,20.79-31.36,41.55c-3.48,4.62-6.92,9.27-10.45,13.84-4.6,6-11.36,7.11-16.87,2.94-5.29-4-6.24-10.85-1.89-16.65,14-18.64,28-37.27,42.23-55.67C296.92,103.78,300.62,102.42,303.55,100.48Z"/><path class="cls-2" d="M147.7,339.38,124.48,355l.3.85H222v6.89H101.25v-6.5h17.94l9.94-30.88Z"/></svg>